<svg width="16" height="18" viewBox="0 0 16 18" fill="none" xmlns="http://www.w3.org/2000/svg">
<path d="M3.17429 12.7452C2.68082 12.8152 1.86849 12.9456 1.3281 12.352C0.787701 11.7585 0.320383 10.3254 0.114994 9.04449C-0.188089 7.15669 0.112686 5.56566 0.961166 4.56479C1.46118 3.97537 2.11735 3.63393 2.8589 3.57956C3.49391 3.53227 4.44278 3.77281 5.35895 5.18773C5.93281 6.07428 6.36936 7.25201 6.55667 8.41858C6.78283 9.82679 7.00322 11.3296 6.23205 11.8684C5.79704 12.1726 5.48473 12.2779 4.74663 12.4481C4.1397 12.5877 3.66815 12.6749 3.17429 12.7452V12.7452ZM2.29658 13.9565L6.48475 13.1202C6.8386 13.0494 7.12245 13.2379 7.254 13.8023C7.68554 15.6551 7.06707 17.8721 5.1301 17.8721C3.29583 17.8721 2.0735 15.848 1.87388 14.76C1.78272 14.2666 1.91273 14.0328 2.29658 13.9565V13.9565ZM11.2533 8.87395C10.5152 8.70454 10.2029 8.59842 9.7679 8.29421C8.99673 7.75543 9.21712 6.25264 9.44327 4.84442C9.63059 3.67786 10.0671 2.49864 10.641 1.61357C11.5564 0.198658 12.5053 -0.0418776 13.141 0.00541037C13.8818 0.0601453 14.5384 0.400842 15.0384 0.990266C15.8876 1.99113 16.1884 3.58217 15.8846 5.46996C15.6788 6.75084 15.213 8.17916 14.6695 8.77752C14.1261 9.37588 13.3184 9.24072 12.8233 9.17071C12.3283 9.10071 11.8599 9.01321 11.2533 8.87395V8.87395ZM13.703 10.382L9.51482 9.54567C9.16096 9.47492 8.87711 9.66333 8.74557 10.2278C8.3144 12.0806 8.93288 14.2976 10.8698 14.2976C12.7041 14.2976 13.9264 12.2735 14.1261 11.1855C14.2168 10.6921 14.0868 10.4583 13.703 10.382V10.382Z" fill="#131313"/>
</svg>
