<svg width="12" height="19" viewBox="0 0 12 19" fill="none" xmlns="http://www.w3.org/2000/svg">
<path d="M0.532937 0.499874C0.363998 0.657298 0.229969 0.844287 0.13852 1.05014C0.0470718 1.25599 0 1.47666 0 1.69952C0 1.92238 0.0470718 2.14305 0.13852 2.3489C0.229969 2.55475 0.363998 2.74174 0.532937 2.89917L7.60367 9.50148L0.532937 16.1038C0.192198 16.422 0.000771642 16.8535 0.000771642 17.3034C0.000771642 17.7534 0.192198 18.1849 0.532937 18.5031C0.873677 18.8213 1.33582 19 1.8177 19C2.29958 19 2.76172 18.8213 3.10246 18.5031L11.4671 10.6926C11.636 10.5352 11.77 10.3482 11.8615 10.1424C11.9529 9.9365 12 9.71583 12 9.49297C12 9.27011 11.9529 9.04944 11.8615 8.84359C11.77 8.63774 11.636 8.45075 11.4671 8.29333L3.10246 0.482857C2.40996 -0.163761 1.24366 -0.163761 0.532937 0.499874Z" fill="#0FAA00"/>
</svg>
